Motion_mu01
version=1
nRows=6
nColumns=43
inDegrees=yes
endheader
time	pelvis_tilt	pelvis_list	pelvis_rotation	pelvis_tx	pelvis_ty	pelvis_tz	hip_flexion_r	hip_adduction_r	hip_rotation_r	knee_angle_r	ankle_angle_r	subtalar_angle_r	mtp_angle_r	hip_flexion_l	hip_adduction_l	hip_rotation_l	knee_angle_l	ankle_angle_l	subtalar_angle_l	mtp_angle_l	lumbar_extension	lumbar_bending	lumbar_rotation	neck_flexion	neck_lateral_bending	neck_rotation	arm_flex_r	arm_add_r	arm_rot_r	elbow_flex_r	pro_sup_r	wrist_flex_r	wrist_dev_r	hand_finger_flex_r	arm_flex_l	arm_add_l	arm_rot_l	elbow_flex_l	pro_sup_l	wrist_flex_l	wrist_dev_l	hand_finger_flex_l
      0.00250000	     -1.79094307	     22.31450515	    -86.30738682	     -0.02096438	      0.94731603	      0.69141002	     17.04667461	     -3.70703239	    -11.71094794	    -14.83060796	     -1.17927896	      5.41277029	      6.74768836	     14.36169893	     -3.44500169	    -16.06850304	     -8.19807601	      4.61779178	      9.20001946	      0.15190944	     13.32905905	      0.82212597	     -4.07562278	     36.36035179	      1.85032608	      8.50780680	    -30.73859793	   -158.22426754	   -118.86184418	     32.94246045	    127.22653454	     14.23918036	    -21.80795805	     12.35777247	    -28.24065262	    208.06943430	   -105.78647703	     35.33565686	    108.73572675	     -6.80624411	    -15.77961502	     20.12199717
      0.00500000	     -1.79368075	     22.35377749	    -86.30432030	     -0.02089803	      0.94707768	      0.69233580	     17.03005144	     -3.71486540	    -11.70443150	    -14.83238337	     -1.17508434	      5.41584563	      6.75085862	     14.33212483	     -3.46527569	    -16.06678935	     -8.21026408	      4.61630118	      9.20376708	      0.15111466	     13.35061549	      0.81815160	     -4.08908919	     36.36110839	      1.85376529	      8.51400510	    -30.72068306	   -158.18686443	   -118.86007112	     32.93435039	    127.22276595	     14.25117039	    -21.81083011	     12.36161331	    -28.23344211	    208.11102346	   -105.78787528	     35.32495848	    108.73670591	     -6.80216463	    -15.77513467	     20.13740306
      0.00750000	     -1.88163915	     22.62772972	    -86.24458903	     -0.02088717	      0.94665230	      0.69315636	     17.17093025	     -3.62623820	    -11.55990964	    -14.65729133	     -0.78259612	      5.66334842	      7.13282287	     14.56701490	     -3.58945198	    -15.78032601	     -8.20241217	      4.59372457	      9.88918673	      0.06284981	     13.59486287	      0.91628082	     -4.23116761	     36.47881638	      2.06950081	      9.15362971	    -30.44004217	   -158.18864623	   -118.11985296	     32.92175156	    126.13376328	     16.02244724	    -22.24887817	     13.03018881	    -27.96236541	    208.42337400	   -105.64712430	     35.70186379	    108.61327615	     -5.91447018	    -15.49199974	     22.29117003
      0.01000000	     -1.88100370	     22.66446970	    -86.22732853	     -0.02082631	      0.94638165	      0.69415415	     17.14663963	     -3.63214631	    -11.55867197	    -14.67902759	     -0.78808872	      5.66442891	      7.13505968	     14.53351859	     -3.59521230	    -15.78956683	     -8.21488354	      4.59750292	      9.88682047	      0.06256446	     13.61932222	      0.90269385	     -4.24547962	     36.47512270	      2.06472799	      9.15256361	    -30.41526289	   -158.14368024	   -118.12928586	     32.91436099	    126.12435313	     16.02441814	    -22.24627073	     13.03243817	    -27.95424589	    208.46398770	   -105.65819914	     35.69289549	    108.60791538	     -5.91368821	    -15.48750872	     22.30586888
      0.01250000	     -1.87973189	     22.70043035	    -86.21359794	     -0.02078042	      0.94609450	      0.69516848	     17.12305249	     -3.64034764	    -11.55765840	    -14.70178498	     -0.79196797	      5.66500505	      7.13747599	     14.50078869	     -3.60224653	    -15.79644491	     -8.22415168	      4.60257300	      9.88600094	      0.06246727	     13.64433320	      0.88852888	     -4.25962330	     36.46796811	      2.06040408	      9.15103649	    -30.39186489	   -158.09450514	   -118.13793703	     32.91374949	    126.10880769	     16.03564146	    -22.24779388	     13.03885256	    -27.94503156	    208.51446507	   -105.66965412	     35.68935736	    108.60072177	     -5.90807055	    -15.48433639	     22.32338723
      0.01500000	     -1.77585824	     22.75649899	    -86.23105275	     -0.02048891	      0.94582424	      0.69625378	     17.23549991	     -3.82604113	    -11.73178308	    -14.98505714	     -0.92128200	      5.98581973	      8.43563839	     14.34852991	     -3.49321828	    -16.30062807	     -7.99644149	      5.06281939	     10.83955392	     -0.24122762	     13.63986435	      0.77372602	     -4.08190108	     36.46117411	      1.97370297	      8.91464943	    -29.93818837	   -157.69008141	   -116.81214188	     33.22666593	    122.80614642	     17.17922076	    -20.69039729	     14.92423879	    -28.15487437	    208.52630034	   -106.92369589	     36.23619238	    105.99017979	     -4.86698936	    -13.52377934	     29.64416097
